<?xml version="1.0" encoding="UTF-8" standalone="no"?>
<!-- Generator: Adobe Illustrator 16.0.0, SVG Export Plug-In . SVG Version: 6.00 Build 0)  -->

<svg
   xmlns:dc="http://purl.org/dc/elements/1.1/"
   xmlns:cc="http://creativecommons.org/ns#"
   xmlns:rdf="http://www.w3.org/1999/02/22-rdf-syntax-ns#"
   xmlns:svg="http://www.w3.org/2000/svg"
   xmlns="http://www.w3.org/2000/svg"
   xmlns:sodipodi="http://sodipodi.sourceforge.net/DTD/sodipodi-0.dtd"
   xmlns:inkscape="http://www.inkscape.org/namespaces/inkscape"
   version="1.1"
   id="Layer_1"
   x="0px"
   y="0px"
   width="9.7545834cm"
   height="9.7545834cm"
   viewBox="0 0 368.67717 368.67717"
   enable-background="new 0 0 612 792"
   xml:space="preserve"
   inkscape:version="0.92.3 (2405546, 2018-03-11)"
   sodipodi:docname="logo-official.svg"
   inkscape:export-filename="/Users/Autonomens/Logo Autonomens/Logo-autonomens-official2.png"
   inkscape:export-xdpi="300"
   inkscape:export-ydpi="300"><metadata
     id="metadata21"><rdf:RDF><cc:Work
         rdf:about=""><dc:format>image/svg+xml</dc:format><dc:type
           rdf:resource="http://purl.org/dc/dcmitype/StillImage" /><dc:title></dc:title></cc:Work></rdf:RDF></metadata><defs
     id="defs19" /><sodipodi:namedview
     pagecolor="#ffffff"
     bordercolor="#666666"
     borderopacity="1"
     objecttolerance="10"
     gridtolerance="10"
     guidetolerance="10"
     inkscape:pageopacity="0"
     inkscape:pageshadow="2"
     inkscape:window-width="1440"
     inkscape:window-height="870"
     id="namedview17"
     showgrid="false"
     inkscape:zoom="0.84281415"
     inkscape:cx="68.336917"
     inkscape:cy="82.343447"
     inkscape:window-x="0"
     inkscape:window-y="180"
     inkscape:window-maximized="0"
     inkscape:current-layer="Layer_1"
     fit-margin-top="0.3"
     fit-margin-left="0.3"
     fit-margin-bottom="0.3"
     fit-margin-right="0.3"
     units="cm"
     inkscape:pagecheckerboard="true" /><rect
     style="opacity:1;fill:#ffffff;fill-opacity:1;stroke:none;stroke-width:0.84567285;stroke-miterlimit:4;stroke-dasharray:none;stroke-opacity:1"
     id="rect850"
     width="346"
     height="346"
     x="11.338583"
     y="11.338583"
     ry="10.679012"
     inkscape:export-filename="/home/jeremie/Code/autonomens.github.io/static/img/favicon-16x16.png"
     inkscape:export-xdpi="4.4393063"
     inkscape:export-ydpi="4.4393063" /><g
     id="g829"
     transform="matrix(1.175777,0,0,1.175777,-189.82746,-274.10748)"
     inkscape:export-filename="/home/jeremie/Code/autonomens.github.io/static/img/favicon-16x16.png"
     inkscape:export-xdpi="4.4393063"
     inkscape:export-ydpi="4.4393063"><path
       d="m 176.478,392.25 c 0.112,-12.304 1.818,-24.9 5.664,-37.183 2.681,-8.563 6.396,-16.643 11.182,-24.23 0.616,-0.976 1.29,-1.926 2.168,-2.696 2.257,-1.979 4.749,-2.226 7.453,-1.021 1.947,0.868 3.632,2.145 5.378,3.333 2.217,1.508 3.215,1.356 4.794,-0.792 1.846,-2.512 3.208,-5.318 4.726,-8.028 1.225,-2.187 2.304,-4.461 3.935,-6.405 3.376,-4.024 6.792,-4.18 10.618,-0.563 2.127,2.01 3.766,4.447 5.882,6.46 1.477,1.404 1.902,1.417 3.09,-0.205 2.633,-3.595 5.994,-6.038 10.505,-6.66 2.705,-0.373 5.319,0.298 7.946,0.752 2.944,0.509 5.832,1.301 8.832,1.535 4.244,0.332 8.05,-0.639 11.422,-3.308 3.53,-2.794 7.242,-5.377 10.382,-8.625 5.138,-5.315 8.201,-11.538 7.929,-19.111 -0.1,-2.801 -0.483,-5.592 -1.276,-8.262 -1.356,-4.566 0.36,-6.979 3.457,-9.421 2.122,-1.673 4.391,-3.131 5.767,-5.621 0.809,-1.463 2.541,-1.193 3.923,-1.252 3.146,-0.137 6.107,0.651 8.731,2.42 6.311,4.255 12.935,8.02 19.199,12.344 4.108,2.835 8.071,5.845 11.535,9.464 4.568,4.772 8.193,10.166 10.615,16.326 1.588,4.038 4.278,6.843 8.662,7.537 3.653,0.579 7.148,-0.157 10.348,-2.084 2.251,-1.356 4.455,-2.793 6.746,-4.077 3.373,-1.891 6.968,-3.175 10.877,-3.313 4.374,-0.154 8.335,1.189 11.979,3.531 6.319,4.06 11.348,9.375 15.219,15.795 1.514,2.512 2.174,2.85 4.973,2.022 2.802,-0.829 5.629,-1.654 8.547,-1.639 7.292,0.036 11.99,2.377 14.321,10.373 1.173,4.023 1.618,8.104 1.672,12.285 0.079,6.026 1.437,11.856 3.129,17.612 1.558,5.3 2.525,10.702 2.933,16.214 0.882,11.934 -0.716,23.544 -4.238,34.955 -2.439,7.906 -5.466,15.56 -9.115,22.977 -0.791,1.607 -1.443,3.283 -2.252,4.882 -1.751,3.459 -4.896,4.973 -8.443,5.867 -4.074,1.027 -8.204,1.68 -12.414,1.779 -0.516,0.013 -1.058,0.229 -1.539,0.127 -2.337,-0.496 -3.316,0.691 -4.132,2.721 -2.532,6.302 -6.45,11.691 -11.396,16.336 -5.237,4.918 -11.35,8.281 -18.239,10.264 -5.531,1.592 -11.176,2.264 -16.921,1.941 -6.306,-0.354 -12.193,-2.199 -17.708,-5.242 -4.068,-2.244 -7.792,-4.986 -11.104,-8.237 -6.188,-6.074 -10.314,-13.4 -12.853,-21.656 -1.355,-4.412 -2.688,-8.832 -4.094,-13.229 -0.648,-2.029 -1.512,-3.985 -3.43,-5.177 -3.744,-2.325 -8.087,-1.049 -10.208,3.005 -1.171,2.238 -1.728,4.705 -2.465,7.099 -2.509,8.148 -5.039,16.287 -9.919,23.424 -6.787,9.927 -16.043,16.297 -27.819,18.734 -9.331,1.931 -18.619,1.783 -27.605,-1.869 -4.347,-1.767 -8.268,-4.257 -11.876,-7.26 -3.959,-3.295 -7.169,-7.242 -10.099,-11.438 -0.348,-0.498 -0.664,-0.845 -1.349,-0.707 -3.479,0.7 -6.641,-0.523 -9.718,-1.83 -4.031,-1.711 -11.04034,-5.20593 -15.37638,-9.423 -4.33604,-4.21707 -7.40146,-7.34305 -11.60062,-13.819 -2.071,-2.63 -2.697,-6.015 -3.652,-9.168 -2.185,-7.216 -3.24,-14.625 -3.535,-22.159 -0.081,-1.958 -0.058,-3.912 -0.163,-6.404 z m 265.949,-31.43 c 0.105,-2.086 -0.073,-4.721 -0.299,-7.347 -0.261,-3.021 -0.504,-6.048 -1.145,-9.021 -0.381,-1.768 -1.182,-2.397 -2.999,-2.463 -1.311,-0.048 -2.53,0.281 -3.702,0.832 -1.903,0.893 -3.493,2.23 -5.08,3.573 -1.926,1.629 -3.885,3.202 -6.34,4.002 -1.697,0.553 -3.149,0.15 -4.401,-1.062 -1.272,-1.232 -2.353,-2.632 -3.158,-4.2 -1.933,-3.764 -3.828,-7.547 -5.666,-11.358 -0.921,-1.909 -1.524,-3.937 -1.796,-6.057 -0.064,-0.503 -0.229,-1.024 -0.473,-1.468 -1.58,-2.86 -3.7,-5.194 -6.665,-6.68 -2.057,-1.03 -4.256,-1.577 -6.51,-1.939 -7.536,-1.211 -14.567,0.031 -20.858,4.495 -2.375,1.685 -4.515,3.702 -6.89,5.388 -3.966,2.814 -8.342,4.151 -13.236,3.03 -1.564,-0.358 -2.115,-1.186 -1.898,-2.775 0.45,-3.29 0.576,-6.586 0.46,-9.91 -0.378,-10.805 -5.062,-19.486 -13.061,-26.485 -4.613,-4.036 -9.156,-8.06 -12.262,-13.492 -1.738,-3.041 -5.274,-4.08 -8.708,-3.034 -2.713,0.826 -4.015,2.997 -4,6.74 0.033,7.795 -2.554,14.708 -7.037,20.984 -4.209,5.891 -9.654,10.519 -15.302,14.935 -5.698,4.455 -11.429,8.869 -16.304,14.267 -4.574,5.065 -7.876,10.731 -8.599,17.67 -0.138,1.32 -0.716,1.562 -1.843,0.854 -1.971,-1.241 -3.042,-3.117 -3.658,-5.293 -0.574,-2.027 -0.47,-4.115 -0.531,-6.19 -0.054,-1.838 -0.175,-3.668 -1.079,-5.345 -1.277,-2.37 -2.794,-2.662 -4.766,-0.877 -4.709,4.263 -8.448,9.238 -11.148,15.003 -2.968,6.338 -5.089,12.997 -7.503,19.544 -1.687,4.572 -3.545,9.067 -5.802,13.39 -0.159,0.305 -0.291,0.784 -0.71,0.693 -0.372,-0.081 -0.395,-0.55 -0.431,-0.902 -0.107,-1.033 -0.198,-2.067 -0.296,-3.101 -0.609,-6.439 -1.237,-12.877 -1.818,-19.318 -0.194,-2.151 -0.812,-2.508 -2.597,-1.354 -0.1,0.065 -0.207,0.122 -0.302,0.194 -3.206,2.41 -6.556,2.581 -10.111,0.774 -2.739,-1.393 -5.512,-2.725 -8.316,-3.979 -5.39,-2.409 -10.096,0.007 -11.375,5.758 -0.357,1.607 -0.534,3.226 -0.527,4.871 0.019,4.196 0.735,8.359 0.542,12.567 -0.153,3.335 0.402,6.593 1.161,9.837 2.082,8.897 6.836,16.17 13.42,22.347 1.615,1.516 1.894,1.515 3.708,0.277 1.816,-1.238 3.607,-2.514 5.405,-3.777 5.137,-3.611 9.854,-7.77 14.944,-11.447 9.761,-7.053 20.47,-10.559 32.63,-9.309 11.667,1.198 21.488,6.01 29.63,14.386 3.202,3.294 6.161,6.827 9.61,9.877 3.411,3.018 7.301,5.052 11.931,5.287 6.728,0.343 12.229,-2.307 16.668,-7.227 3.188,-3.533 6.369,-7.06 9.951,-10.211 12.687,-11.162 27.222,-14.897 43.661,-10.833 7.798,1.928 14.283,6.251 20.259,11.455 3.979,3.464 7.941,6.948 12.063,10.245 0.752,0.602 1.424,0.902 2.127,-0.04 2.798,-3.753 6.227,-6.952 9.234,-10.521 2.821,-3.347 5.136,-7.027 6.961,-11.004 3.599,-7.84 4.946,-16.129 4.837,-25.256 z m -181.242,28.216 c -23.09,0.045 -40.898,18.533 -41.224,41.312 -0.339,23.747 17.645,41.931 41.451,42.118 22.66,0.178 41.438,-18.381 41.426,-41.63 -0.011,-23.594 -19.27,-41.807 -41.653,-41.8 z m 113.514,-0.004 c -21.267,0.018 -40.896,17.452 -41.174,40.974 -0.284,24.064 17.775,42.182 40.758,42.49 23.952,0.322 42.227,-19.631 42.209,-41.604 -0.019,-22.639 -19.196,-41.859 -41.793,-41.86 z"
       id="path7"
       inkscape:connector-curvature="0"
       style="clip-rule:evenodd;fill:#f9a93e;fill-rule:evenodd"
       sodipodi:nodetypes="ccccccccccccsccsccccccccccccccccccccsccccccccccccsccccccsccccczccccccccccscccccccccccccccccscccccccccccccccccccccccccccscccccccccccccsccccccc" /><path
       d="m 304.987,518.859 c -10.639,-0.233 -20.292,-2.399 -29.337,-6.972 -7.784,-3.936 -14.493,-9.307 -20.362,-15.737 -1.211,-1.327 -2.365,-2.707 -3.517,-4.088 -0.916,-1.097 -0.877,-1.589 0.257,-2.483 1.662,-1.309 3.349,-2.587 5.057,-3.836 1.341,-0.98 1.609,-0.94 2.884,0.207 9.424,8.485 20.334,14.264 32.513,17.642 7.964,2.208 16.101,2.871 24.33,2.047 3.334,-0.335 6.636,-0.918 9.887,-1.767 1.735,-0.452 2.071,-0.266 2.967,1.3 1.069,1.868 2.15,3.73 3.232,5.592 0.975,1.674 0.794,2.33 -0.949,3.021 -7.179,2.85 -14.618,4.519 -22.343,4.874 -1.714,0.078 -3.423,0.305 -4.619,0.2 z"
       id="path9"
       inkscape:connector-curvature="0"
       style="clip-rule:evenodd;fill:#3b7889;fill-rule:evenodd" /><path
       d="m 442.427,360.82 c 0.109,9.127 -1.237,17.416 -4.835,25.257 -1.825,3.977 -4.14,7.657 -6.961,11.004 -3.008,3.568 -6.437,6.768 -9.234,10.521 -0.703,0.942 -1.375,0.642 -2.127,0.04 -4.122,-3.297 -8.085,-6.781 -12.063,-10.245 -5.976,-5.203 -12.461,-9.526 -20.259,-11.455 -16.439,-4.065 -30.975,-0.33 -43.661,10.833 -3.582,3.151 -6.763,6.678 -9.951,10.211 -4.438,4.92 -9.94,7.569 -16.668,7.227 -4.63,-0.235 -8.52,-2.27 -11.931,-5.287 -3.449,-3.05 -6.408,-6.583 -9.61,-9.877 -8.143,-8.376 -17.964,-13.188 -29.63,-14.386 -12.161,-1.25 -22.869,2.256 -32.63,9.309 -5.089,3.678 -9.807,7.836 -14.944,11.447 -1.798,1.264 -3.589,2.539 -5.405,3.777 -1.813,1.237 -2.093,1.238 -3.708,-0.277 -6.584,-6.177 -11.338,-13.45 -13.42,-22.347 -0.759,-3.244 -1.314,-6.501 -1.161,-9.837 0.193,-4.208 -0.523,-8.372 -0.542,-12.567 -0.007,-1.646 0.169,-3.264 0.527,-4.871 1.279,-5.751 5.985,-8.167 11.375,-5.758 2.804,1.254 5.577,2.586 8.316,3.979 3.555,1.807 6.905,1.636 10.111,-0.774 0.096,-0.072 0.202,-0.129 0.302,-0.194 1.785,-1.154 2.403,-0.797 2.597,1.354 0.581,6.441 1.208,12.879 1.818,19.318 0.098,1.034 0.189,2.068 0.296,3.101 0.036,0.352 0.059,0.821 0.431,0.902 0.419,0.091 0.551,-0.388 0.71,-0.693 2.257,-4.323 4.115,-8.818 5.802,-13.39 2.414,-6.547 4.535,-13.206 7.503,-19.544 2.7,-5.765 6.439,-10.741 11.148,-15.003 1.972,-1.785 3.489,-1.493 4.766,0.877 0.904,1.677 1.025,3.507 1.079,5.345 0.061,2.075 -0.043,4.163 0.531,6.19 0.616,2.176 1.687,4.053 3.658,5.293 1.126,0.709 1.705,0.467 1.843,-0.854 0.723,-6.938 4.025,-12.604 8.599,-17.67 4.875,-5.398 10.606,-9.812 16.304,-14.267 5.648,-4.417 11.093,-9.044 15.302,-14.935 4.483,-6.275 7.07,-13.189 7.037,-20.984 -0.015,-3.743 1.287,-5.914 4,-6.74 3.434,-1.046 6.97,-0.007 8.708,3.034 3.105,5.432 7.648,9.456 12.262,13.492 7.999,6.999 12.683,15.68 13.061,26.485 0.116,3.324 -0.01,6.62 -0.46,9.91 -0.217,1.589 0.334,2.417 1.898,2.775 4.895,1.121 9.271,-0.216 13.236,-3.03 2.375,-1.686 4.515,-3.703 6.89,-5.388 6.291,-4.464 13.322,-5.706 20.858,-4.495 2.254,0.362 4.453,0.909 6.51,1.939 2.965,1.486 5.085,3.82 6.665,6.68 0.244,0.444 0.408,0.965 0.473,1.468 0.271,2.12 0.875,4.148 1.796,6.057 1.838,3.811 3.733,7.595 5.666,11.358 0.806,1.567 1.886,2.968 3.158,4.2 1.252,1.212 2.704,1.615 4.401,1.062 2.455,-0.8 4.414,-2.373 6.34,-4.002 1.587,-1.343 3.177,-2.68 5.08,-3.573 1.172,-0.551 2.392,-0.88 3.702,-0.832 1.817,0.066 2.618,0.696 2.999,2.463 0.641,2.973 0.884,6.001 1.145,9.021 0.224,2.626 0.402,5.26 0.297,7.346 z"
       id="path11"
       inkscape:connector-curvature="0"
       style="clip-rule:evenodd;fill:#3b7889;fill-rule:evenodd" /><path
       d="m 261.185,389.036 c 22.384,-0.007 41.642,18.206 41.654,41.8 0.012,23.249 -18.767,41.808 -41.426,41.63 -23.806,-0.188 -41.79,-18.371 -41.451,-42.118 0.324,-22.779 18.133,-41.267 41.223,-41.312 z"
       id="path13"
       inkscape:connector-curvature="0"
       style="clip-rule:evenodd;fill:#3b7889;fill-rule:evenodd" /><path
       d="m 374.699,389.032 c 22.597,0.001 41.773,19.221 41.793,41.859 0.018,21.974 -18.257,41.927 -42.209,41.604 -22.982,-0.309 -41.042,-18.426 -40.758,-42.49 0.278,-23.521 19.908,-40.955 41.174,-40.973 z"
       id="path15"
       inkscape:connector-curvature="0"
       style="clip-rule:evenodd;fill:#3b7889;fill-rule:evenodd" /></g></svg>